<svg xmlns="http://www.w3.org/2000/svg" width="54.188" height="72.25" viewBox="0 0 54.188 72.25"><defs><style>.a{fill:#056431;}</style></defs><path class="a" d="M31.609,19.191V0H3.387A3.379,3.379,0,0,0,0,3.387V68.863A3.379,3.379,0,0,0,3.387,72.25H50.8a3.379,3.379,0,0,0,3.387-3.387V22.578H35A3.4,3.4,0,0,1,31.609,19.191ZM40.09,34.22,31.609,47.414,40.09,60.608a1.7,1.7,0,0,1-1.425,2.611H33.74a1.7,1.7,0,0,1-1.5-.889c-2.766-5.108-5.151-9.694-5.151-9.694-.9,2.088-1.411,2.822-5.165,9.709a1.678,1.678,0,0,1-1.482.889H15.522A1.7,1.7,0,0,1,14.1,60.622l8.509-13.194L14.1,34.234a1.691,1.691,0,0,1,1.425-2.611h4.911a1.7,1.7,0,0,1,1.5.889c3.683,6.886,2.822,4.741,5.165,9.666,0,0,.861-1.651,5.165-9.666a1.7,1.7,0,0,1,1.5-.889h4.911A1.683,1.683,0,0,1,40.09,34.22ZM54.188,17.2v.861H36.125V0h.861a3.384,3.384,0,0,1,2.4.988L53.2,14.817A3.376,3.376,0,0,1,54.188,17.2Z"/></svg>